<svg width="535" height="126" viewBox="0 0 535 126" fill="none" xmlns="http://www.w3.org/2000/svg">
<path d="M502.307 25.1404C510.238 25.1404 516.667 31.5522 516.667 39.4617L411.12 39.4616V25.1404L502.307 25.1404Z" fill="black"/>
<path d="M46.9193 101.753C58.0857 101.753 65.8402 97.2163 71.2166 90.4109L60.3604 81.4401C56.3281 85.3584 52.6059 87.1113 47.9532 87.1113C41.8531 87.1113 37.4072 84.0179 35.8563 77.9342H73.2845C73.3879 76.5938 73.3879 75.1502 73.3879 73.9128C73.3879 57.5179 64.4961 43.3914 45.1616 43.3914C28.6188 43.3914 16.9354 56.2805 16.9354 72.5724V72.7786C16.9354 90.1016 29.3426 101.753 46.9193 101.753ZM35.5461 67.9323C36.58 61.8486 40.0954 57.8272 45.265 57.8272C50.6415 57.8272 54.2602 61.7455 54.984 67.9323H35.5461Z" fill="black"/>
<path d="M104.454 101.65C112.829 101.65 117.688 97.6288 121.514 92.9887V100.413H141.159V25.1404H121.514V51.4342C117.792 47.2066 112.829 43.3914 104.351 43.3914C91.1165 43.3914 79.7433 54.4245 79.7433 72.5724V72.7786C79.7433 90.6171 91.2199 101.65 104.454 101.65ZM110.451 85.2552C104.144 85.2552 98.9743 79.9965 98.9743 72.5724V72.3661C98.9743 64.942 104.144 59.7863 110.451 59.7863C116.758 59.7863 121.824 65.0451 121.824 72.3661V72.5724C121.824 79.9965 116.758 85.2552 110.451 85.2552Z" fill="black"/>
<path d="M170.293 101.65C178.254 101.65 183.424 97.4226 187.042 92.7825V100.413H206.687V44.6288H187.042V74.8408C187.042 80.9245 183.527 84.2241 178.874 84.2241C174.118 84.2241 170.913 80.9245 170.913 74.8408V44.6288H151.268V81.1307C151.268 93.8136 158.403 101.65 170.293 101.65Z" fill="black"/>
<path d="M244.197 101.753C256.5 101.753 263.945 96.5977 269.114 88.9673L255.983 79.4809C252.882 83.0899 249.883 85.2552 245.231 85.2552C238.613 85.2552 234.064 79.7903 234.064 72.5724V72.3661C234.064 65.5607 238.717 59.9926 245.024 59.9926C249.78 59.9926 252.778 62.1579 255.467 65.87L268.804 55.9712C264.048 48.4439 256.397 43.4945 244.92 43.4945C227.24 43.4945 214.937 56.7961 214.937 72.5724V72.7786C214.937 88.5549 227.344 101.753 244.197 101.753Z" fill="black"/>
<path d="M292.102 101.65C299.443 101.65 304.716 98.8661 308.542 94.6385V100.413H327.98V68.3447C327.98 60.5081 326.222 54.7338 321.983 50.6093C317.537 46.1754 310.713 43.8038 300.684 43.8038C291.068 43.8038 284.348 45.5568 278.041 48.1346L282.073 61.9517C287.036 59.9926 291.585 58.8583 297.479 58.8583C305.026 58.8583 308.645 62.1579 308.645 67.9323V68.8603C305.44 67.726 300.374 66.6949 295.204 66.6949C282.073 66.6949 273.285 72.6755 273.285 84.2241V84.4303C273.285 95.5665 281.453 101.65 292.102 101.65ZM299.133 89.3798C295.101 89.3798 292.206 87.1113 292.206 83.2961V83.0899C292.206 78.9654 295.514 76.1813 301.201 76.1813C304.096 76.1813 306.887 76.8 308.852 77.6249V80.2027C308.852 85.7708 304.82 89.3798 299.133 89.3798Z" fill="black"/>
<path d="M359.695 101.547C365.175 101.547 369.828 100.31 373.343 98.3506V82.9868C370.965 84.121 368.484 84.8428 365.899 84.8428C362.28 84.8428 360.522 83.193 360.522 79.2747V60.405H373.55V44.6288H360.522V30.5023H340.878V44.6288H334.261V60.405H340.878V83.0899C340.878 96.3914 347.908 101.547 359.695 101.547Z" fill="black"/>
<path d="M381.993 39.5762H402.465V25.1404H381.993V39.5762ZM382.407 100.413H402.052V44.6288H382.407V100.413Z" fill="black"/>
<path d="M439.976 101.753C452.28 101.753 459.725 96.5977 464.894 88.9673L451.763 79.4809C448.661 83.0899 445.663 85.2552 441.01 85.2552C434.393 85.2552 429.844 79.7903 429.844 72.5724V72.3661C429.844 65.5607 434.497 59.9926 440.804 59.9926C445.56 59.9926 448.558 62.1579 451.246 65.87L464.584 55.9712C459.828 48.4439 452.177 43.4945 440.7 43.4945C423.02 43.4945 410.716 56.7961 410.716 72.5724V72.7786C410.716 88.5549 423.123 101.753 439.976 101.753Z" fill="black"/>
<path d="M494.086 101.65C507.733 101.65 516.935 95.2572 516.935 82.9868V82.7805C516.935 71.9537 508.147 68.1385 497.084 65.0451C491.191 63.2922 487.985 62.2611 487.985 60.0957V59.8895C487.985 58.3428 489.536 57.2085 492.535 57.2085C496.981 57.2085 503.288 59.1677 509.078 62.3642L515.798 49.9906C509.388 45.8661 500.91 43.4945 492.741 43.4945C479.817 43.4945 470.305 50.0937 470.305 61.9517V62.1579C470.305 73.3973 479.094 77.1093 490.157 79.9965C496.05 81.6463 499.152 82.5743 499.152 84.7397V84.9459C499.152 86.905 497.601 87.9362 494.189 87.9362C488.399 87.9362 481.368 85.7708 474.958 81.5432L467.617 93.4012C475.372 98.9693 484.677 101.65 494.086 101.65Z" fill="black"/>
</svg>
