<svg width="535" height="126" viewBox="0 0 535 126" fill="none" xmlns="http://www.w3.org/2000/svg">
<path d="M502.307 25.0341C510.238 25.0341 516.667 31.4459 516.667 39.3554L411.12 39.3553V25.0341L502.307 25.0341Z" fill="#CC0000"/>
<path d="M46.9193 101.647C58.0857 101.647 65.8402 97.11 71.2166 90.3046L60.3604 81.3338C56.3281 85.2521 52.6059 87.005 47.9532 87.005C41.8531 87.005 37.4072 83.9116 35.8563 77.8279H73.2845C73.3879 76.4875 73.3879 75.0439 73.3879 73.8065C73.3879 57.4116 64.4961 43.2851 45.1616 43.2851C28.6188 43.2851 16.9354 56.1742 16.9354 72.4661V72.6723C16.9354 89.9952 29.3426 101.647 46.9193 101.647ZM35.5461 67.826C36.58 61.7423 40.0954 57.7209 45.265 57.7209C50.6415 57.7209 54.2602 61.6392 54.984 67.826H35.5461Z" fill="black"/>
<path d="M104.454 101.544C112.829 101.544 117.688 97.5225 121.514 92.8824V100.307H141.159V25.0341H121.514V51.3279C117.792 47.1003 112.829 43.2851 104.351 43.2851C91.1165 43.2851 79.7433 54.3182 79.7433 72.4661V72.6723C79.7433 90.5108 91.2199 101.544 104.454 101.544ZM110.451 85.1489C104.144 85.1489 98.9743 79.8902 98.9743 72.4661V72.2598C98.9743 64.8357 104.144 59.68 110.451 59.68C116.758 59.68 121.824 64.9388 121.824 72.2598V72.4661C121.824 79.8902 116.758 85.1489 110.451 85.1489Z" fill="black"/>
<path d="M170.293 101.544C178.254 101.544 183.424 97.3163 187.042 92.6762V100.307H206.687V44.5225H187.042V74.7345C187.042 80.8182 183.527 84.1178 178.874 84.1178C174.118 84.1178 170.913 80.8182 170.913 74.7345V44.5225H151.268V81.0244C151.268 93.7073 158.403 101.544 170.293 101.544Z" fill="black"/>
<path d="M244.197 101.647C256.5 101.647 263.945 96.4914 269.114 88.861L255.983 79.3746C252.882 82.9836 249.883 85.1489 245.231 85.1489C238.613 85.1489 234.064 79.684 234.064 72.4661V72.2598C234.064 65.4544 238.717 59.8863 245.024 59.8863C249.78 59.8863 252.778 62.0516 255.467 65.7637L268.804 55.8649C264.048 48.3376 256.397 43.3882 244.92 43.3882C227.24 43.3882 214.937 56.6898 214.937 72.4661V72.6723C214.937 88.4486 227.344 101.647 244.197 101.647Z" fill="black"/>
<path d="M292.102 101.544C299.443 101.544 304.716 98.7598 308.542 94.5322V100.307H327.98V68.2384C327.98 60.4018 326.222 54.6275 321.983 50.503C317.537 46.0691 310.713 43.6975 300.684 43.6975C291.068 43.6975 284.348 45.4505 278.041 48.0283L282.073 61.8454C287.036 59.8863 291.585 58.752 297.479 58.752C305.026 58.752 308.645 62.0516 308.645 67.826V68.754C305.44 67.6197 300.374 66.5886 295.204 66.5886C282.073 66.5886 273.285 72.5692 273.285 84.1178V84.324C273.285 95.4602 281.453 101.544 292.102 101.544ZM299.133 89.2735C295.101 89.2735 292.206 87.005 292.206 83.1898V82.9836C292.206 78.8591 295.514 76.075 301.201 76.075C304.096 76.075 306.887 76.6937 308.852 77.5186V80.0964C308.852 85.6645 304.82 89.2735 299.133 89.2735Z" fill="black"/>
<path d="M359.695 101.441C365.175 101.441 369.828 100.203 373.343 98.2443V82.8805C370.965 84.0147 368.484 84.7365 365.899 84.7365C362.28 84.7365 360.522 83.0867 360.522 79.1684V60.2987H373.55V44.5225H360.522V30.396H340.878V44.5225H334.261V60.2987H340.878V82.9836C340.878 96.2851 347.908 101.441 359.695 101.441Z" fill="black"/>
<path d="M381.993 39.4699H402.465V25.0341H381.993V39.4699ZM382.407 100.307H402.052V44.5225H382.407V100.307Z" fill="black"/>
<path d="M439.976 101.647C452.28 101.647 459.725 96.4914 464.894 88.861L451.763 79.3746C448.661 82.9836 445.663 85.1489 441.01 85.1489C434.393 85.1489 429.844 79.684 429.844 72.4661V72.2598C429.844 65.4544 434.497 59.8863 440.804 59.8863C445.56 59.8863 448.558 62.0516 451.246 65.7637L464.584 55.8649C459.828 48.3376 452.177 43.3882 440.7 43.3882C423.02 43.3882 410.716 56.6898 410.716 72.4661V72.6723C410.716 88.4486 423.123 101.647 439.976 101.647Z" fill="black"/>
<path d="M494.086 101.544C507.733 101.544 516.935 95.1509 516.935 82.8805V82.6742C516.935 71.8474 508.147 68.0322 497.084 64.9388C491.191 63.1859 487.985 62.1548 487.985 59.9894V59.7832C487.985 58.2365 489.536 57.1022 492.535 57.1022C496.981 57.1022 503.288 59.0614 509.078 62.2579L515.798 49.8843C509.388 45.7598 500.91 43.3882 492.741 43.3882C479.817 43.3882 470.305 49.9874 470.305 61.8454V62.0516C470.305 73.291 479.094 77.003 490.157 79.8902C496.05 81.54 499.152 82.468 499.152 84.6334V84.8396C499.152 86.7987 497.601 87.8299 494.189 87.8299C488.399 87.8299 481.368 85.6645 474.958 81.4369L467.617 93.2949C475.372 98.863 484.677 101.544 494.086 101.544Z" fill="black"/>
</svg>
