<svg width="535" height="125" viewBox="0 0 535 125" fill="none" xmlns="http://www.w3.org/2000/svg">
<path d="M502.307 24.1936C510.238 24.1936 516.667 30.6054 516.667 38.5148L411.12 38.5148V24.1936L502.307 24.1936Z" fill="white"/>
<path d="M46.9193 100.806C58.0857 100.806 65.8402 96.2695 71.2166 89.464L60.3604 80.4932C56.3281 84.4115 52.6059 86.1644 47.9532 86.1644C41.8531 86.1644 37.4072 83.071 35.8563 76.9874H73.2845C73.3879 75.6469 73.3879 74.2033 73.3879 72.966C73.3879 56.571 64.4961 42.4445 45.1616 42.4445C28.6188 42.4445 16.9354 55.3337 16.9354 71.6255V71.8317C16.9354 89.1547 29.3426 100.806 46.9193 100.806ZM35.5461 66.9854C36.58 60.9018 40.0954 56.8804 45.265 56.8804C50.6415 56.8804 54.2602 60.7986 54.984 66.9854H35.5461Z" fill="white"/>
<path d="M104.454 100.703C112.829 100.703 117.688 96.6819 121.514 92.0419V99.466H141.159V24.1936H121.514V50.4874C117.792 46.2597 112.829 42.4445 104.351 42.4445C91.1165 42.4445 79.7433 53.4776 79.7433 71.6255V71.8317C79.7433 89.6703 91.2199 100.703 104.454 100.703ZM110.451 84.3084C104.144 84.3084 98.9743 79.0496 98.9743 71.6255V71.4193C98.9743 63.9952 104.144 58.8395 110.451 58.8395C116.758 58.8395 121.824 64.0983 121.824 71.4193V71.6255C121.824 79.0496 116.758 84.3084 110.451 84.3084Z" fill="white"/>
<path d="M170.293 100.703C178.254 100.703 183.424 96.4757 187.042 91.8356V99.466H206.687V43.6819H187.042V73.894C187.042 79.9777 183.527 83.2773 178.874 83.2773C174.118 83.2773 170.913 79.9777 170.913 73.894V43.6819H151.268V80.1839C151.268 92.8668 158.403 100.703 170.293 100.703Z" fill="white"/>
<path d="M244.197 100.806C256.5 100.806 263.945 95.6508 269.114 88.0205L255.983 78.5341C252.882 82.143 249.883 84.3084 245.231 84.3084C238.613 84.3084 234.064 78.8434 234.064 71.6255V71.4193C234.064 64.6138 238.717 59.0457 245.024 59.0457C249.78 59.0457 252.778 61.2111 255.467 64.9232L268.804 55.0243C264.048 47.4971 256.397 42.5477 244.92 42.5477C227.24 42.5477 214.937 55.8492 214.937 71.6255V71.8317C214.937 87.608 227.344 100.806 244.197 100.806Z" fill="white"/>
<path d="M292.102 100.703C299.443 100.703 304.716 97.9193 308.542 93.6917V99.466H327.98V67.3979C327.98 59.5613 326.222 53.787 321.983 49.6625C317.537 45.2286 310.713 42.857 300.684 42.857C291.068 42.857 284.348 44.6099 278.041 47.1877L282.073 61.0049C287.036 59.0457 291.585 57.9115 297.479 57.9115C305.026 57.9115 308.645 61.2111 308.645 66.9854V67.9134C305.44 66.7792 300.374 65.7481 295.204 65.7481C282.073 65.7481 273.285 71.7286 273.285 83.2773V83.4835C273.285 94.6197 281.453 100.703 292.102 100.703ZM299.133 88.4329C295.101 88.4329 292.206 86.1644 292.206 82.3492V82.143C292.206 78.0185 295.514 75.2345 301.201 75.2345C304.096 75.2345 306.887 75.8531 308.852 76.678V79.2559C308.852 84.824 304.82 88.4329 299.133 88.4329Z" fill="white"/>
<path d="M359.695 100.6C365.175 100.6 369.828 99.3629 373.343 97.4037V82.0399C370.965 83.1742 368.484 83.8959 365.899 83.8959C362.28 83.8959 360.522 82.2461 360.522 78.3278V59.4582H373.55V43.6819H360.522V29.5554H340.878V43.6819H334.261V59.4582H340.878V82.143C340.878 95.4446 347.908 100.6 359.695 100.6Z" fill="white"/>
<path d="M381.993 38.6294H402.465V24.1936H381.993V38.6294ZM382.407 99.466H402.052V43.6819H382.407V99.466Z" fill="white"/>
<path d="M439.976 100.806C452.28 100.806 459.725 95.6508 464.894 88.0205L451.763 78.5341C448.661 82.143 445.663 84.3084 441.01 84.3084C434.393 84.3084 429.844 78.8434 429.844 71.6255V71.4193C429.844 64.6138 434.497 59.0457 440.804 59.0457C445.56 59.0457 448.558 61.2111 451.246 64.9232L464.584 55.0243C459.828 47.4971 452.177 42.5477 440.7 42.5477C423.02 42.5477 410.716 55.8492 410.716 71.6255V71.8317C410.716 87.608 423.123 100.806 439.976 100.806Z" fill="white"/>
<path d="M494.086 100.703C507.733 100.703 516.935 94.3104 516.935 82.0399V81.8337C516.935 71.0068 508.147 67.1917 497.084 64.0983C491.191 62.3453 487.985 61.3142 487.985 59.1488V58.9426C487.985 57.3959 489.536 56.2617 492.535 56.2617C496.981 56.2617 503.288 58.2208 509.078 61.4173L515.798 49.0438C509.388 44.9193 500.91 42.5477 492.741 42.5477C479.817 42.5477 470.305 49.1469 470.305 61.0049V61.2111C470.305 72.4504 479.094 76.1625 490.157 79.0496C496.05 80.6994 499.152 81.6275 499.152 83.7928V83.9991C499.152 85.9582 497.601 86.9893 494.189 86.9893C488.399 86.9893 481.368 84.824 474.958 80.5963L467.617 92.4543C475.372 98.0224 484.677 100.703 494.086 100.703Z" fill="white"/>
</svg>
