<svg width="535" height="126" viewBox="0 0 535 126" fill="none" xmlns="http://www.w3.org/2000/svg">
<path d="M502.307 25.0873C510.238 25.0873 516.667 31.4991 516.667 39.4085L411.12 39.4085V25.0872L502.307 25.0873Z" fill="#CC0000"/>
<path d="M46.9193 101.7C58.0857 101.7 65.8402 97.1632 71.2166 90.3577L60.3604 81.3869C56.3281 85.3052 52.6059 87.0581 47.9532 87.0581C41.8531 87.0581 37.4072 83.9647 35.8563 77.8811H73.2845C73.3879 76.5406 73.3879 75.097 73.3879 73.8597C73.3879 57.4647 64.4961 43.3382 45.1616 43.3382C28.6188 43.3382 16.9354 56.2274 16.9354 72.5192V72.7254C16.9354 90.0484 29.3426 101.7 46.9193 101.7ZM35.5461 67.8791C36.58 61.7955 40.0954 57.774 45.265 57.774C50.6415 57.774 54.2602 61.6923 54.984 67.8791H35.5461Z" fill="#CC0000"/>
<path d="M104.454 101.597C112.829 101.597 117.688 97.5756 121.514 92.9356V100.36H141.159V25.0873H121.514V51.381C117.792 47.1534 112.829 43.3382 104.351 43.3382C91.1165 43.3382 79.7433 54.3713 79.7433 72.5192V72.7254C79.7433 90.564 91.2199 101.597 104.454 101.597ZM110.451 85.2021C104.144 85.2021 98.9743 79.9433 98.9743 72.5192V72.313C98.9743 64.8888 104.144 59.7332 110.451 59.7332C116.758 59.7332 121.824 64.992 121.824 72.313V72.5192C121.824 79.9433 116.758 85.2021 110.451 85.2021Z" fill="#CC0000"/>
<path d="M170.293 101.597C178.254 101.597 183.424 97.3694 187.042 92.7293V100.36H206.687V44.5756H187.042V74.7877C187.042 80.8713 183.527 84.171 178.874 84.171C174.118 84.171 170.913 80.8713 170.913 74.7877V44.5756H151.268V81.0776C151.268 93.7605 158.403 101.597 170.293 101.597Z" fill="#CC0000"/>
<path d="M244.197 101.7C256.5 101.7 263.945 96.5445 269.114 88.9142L255.983 79.4278C252.882 83.0367 249.883 85.2021 245.231 85.2021C238.613 85.2021 234.064 79.7371 234.064 72.5192V72.313C234.064 65.5075 238.717 59.9394 245.024 59.9394C249.78 59.9394 252.778 62.1048 255.467 65.8169L268.804 55.918C264.048 48.3908 256.397 43.4414 244.92 43.4414C227.24 43.4414 214.937 56.7429 214.937 72.5192V72.7254C214.937 88.5017 227.344 101.7 244.197 101.7Z" fill="#CC0000"/>
<path d="M292.102 101.597C299.443 101.597 304.716 98.813 308.542 94.5854V100.36H327.98V68.2916C327.98 60.455 326.222 54.6807 321.983 50.5561C317.537 46.1223 310.713 43.7507 300.684 43.7507C291.068 43.7507 284.348 45.5036 278.041 48.0814L282.073 61.8986C287.036 59.9394 291.585 58.8052 297.479 58.8052C305.026 58.8052 308.645 62.1048 308.645 67.8791V68.8071C305.44 67.6729 300.374 66.6418 295.204 66.6418C282.073 66.6418 273.285 72.6223 273.285 84.171V84.3772C273.285 95.5134 281.453 101.597 292.102 101.597ZM299.133 89.3266C295.101 89.3266 292.206 87.0581 292.206 83.2429V83.0367C292.206 78.9122 295.514 76.1281 301.201 76.1281C304.096 76.1281 306.887 76.7468 308.852 77.5717V80.1496C308.852 85.7177 304.82 89.3266 299.133 89.3266Z" fill="#CC0000"/>
<path d="M359.695 101.494C365.175 101.494 369.828 100.257 373.343 98.2974V82.9336C370.965 84.0678 368.484 84.7896 365.899 84.7896C362.28 84.7896 360.522 83.1398 360.522 79.2215V60.3519H373.55V44.5756H360.522V30.4491H340.878V44.5756H334.261V60.3519H340.878V83.0367C340.878 96.3383 347.908 101.494 359.695 101.494Z" fill="#CC0000"/>
<path d="M381.993 39.5231H402.465V25.0873H381.993V39.5231ZM382.407 100.36H402.052V44.5756H382.407V100.36Z" fill="#CC0000"/>
<path d="M439.976 101.7C452.28 101.7 459.725 96.5445 464.894 88.9142L451.763 79.4278C448.661 83.0367 445.663 85.2021 441.01 85.2021C434.393 85.2021 429.844 79.7371 429.844 72.5192V72.313C429.844 65.5075 434.497 59.9394 440.804 59.9394C445.56 59.9394 448.558 62.1048 451.246 65.8169L464.584 55.918C459.828 48.3908 452.177 43.4414 440.7 43.4414C423.02 43.4414 410.716 56.7429 410.716 72.5192V72.7254C410.716 88.5017 423.123 101.7 439.976 101.7Z" fill="#CC0000"/>
<path d="M494.086 101.597C507.733 101.597 516.935 95.204 516.935 82.9336V82.7274C516.935 71.9005 508.147 68.0853 497.084 64.992C491.191 63.239 487.985 62.2079 487.985 60.0425V59.8363C487.985 58.2896 489.536 57.1554 492.535 57.1554C496.981 57.1554 503.288 59.1145 509.078 62.311L515.798 49.9375C509.388 45.8129 500.91 43.4414 492.741 43.4414C479.817 43.4414 470.305 50.0406 470.305 61.8986V62.1048C470.305 73.3441 479.094 77.0562 490.157 79.9433C496.05 81.5931 499.152 82.5212 499.152 84.6865V84.8927C499.152 86.8519 497.601 87.883 494.189 87.883C488.399 87.883 481.368 85.7177 474.958 81.49L467.617 93.348C475.372 98.9161 484.677 101.597 494.086 101.597Z" fill="#CC0000"/>
</svg>
