<svg width="189" height="29" viewBox="0 0 189 29" fill="none" xmlns="http://www.w3.org/2000/svg">
<path d="M183.47 1.50468e-06C186.468 1.63555e-06 188.899 2.42705 188.899 5.42097L149.002 5.42097V0L183.47 1.50468e-06Z" fill="#CC0000"/>
<path d="M11.3339 29C15.5548 29 18.486 27.2826 20.5183 24.7066L16.4146 21.3109C14.8904 22.7941 13.4834 23.4576 11.7247 23.4576C9.41887 23.4576 7.73833 22.2867 7.15209 19.9839H21.2999C21.339 19.4764 21.339 18.93 21.339 18.4616C21.339 12.2557 17.9779 6.90848 10.6695 6.90848C4.41632 6.90848 0 11.7873 0 17.9542V18.0323C0 24.5895 4.6899 29 11.3339 29ZM7.03484 16.1978C7.42567 13.895 8.75447 12.3728 10.7086 12.3728C12.7409 12.3728 14.1088 13.856 14.3823 16.1978H7.03484Z" fill="black"/>
<path d="M33.0821 28.961C36.2478 28.961 38.0846 27.4388 39.5307 25.6824V28.4926H46.9563V1.74164e-06H39.5307V9.95289C38.1237 8.35262 36.2478 6.90848 33.043 6.90848C28.0404 6.90848 23.7414 11.0848 23.7414 17.9542V18.0323C23.7414 24.7847 28.0795 28.961 33.0821 28.961ZM35.3489 22.755C32.9648 22.755 31.0107 20.7645 31.0107 17.9542V17.8762C31.0107 15.066 32.9648 13.1144 35.3489 13.1144C37.7329 13.1144 39.6479 15.105 39.6479 17.8762V17.9542C39.6479 20.7645 37.7329 22.755 35.3489 22.755Z" fill="black"/>
<path d="M57.969 28.961C60.9784 28.961 62.9325 27.3607 64.3004 25.6043V28.4926H71.7261V7.37685H64.3004V18.8129C64.3004 21.1157 62.9716 22.3647 61.2129 22.3647C59.4151 22.3647 58.2035 21.1157 58.2035 18.8129V7.37685H50.7779V21.1938C50.7779 25.9946 53.4746 28.961 57.969 28.961Z" fill="black"/>
<path d="M85.9048 29C90.5556 29 93.3695 27.0485 95.3236 24.1602L90.3602 20.5693C89.1877 21.9354 88.0543 22.755 86.2956 22.755C83.7943 22.755 82.0747 20.6864 82.0747 17.9542V17.8762C82.0747 15.3001 83.8334 13.1925 86.2174 13.1925C88.0152 13.1925 89.1486 14.0121 90.1647 15.4172L95.2064 11.6703C93.4086 8.821 90.5165 6.94751 86.1783 6.94751C79.4952 6.94751 74.8444 11.9825 74.8444 17.9542V18.0323C74.8444 24.004 79.5343 29 85.9048 29Z" fill="black"/>
<path d="M104.013 28.961C106.788 28.961 108.781 27.9071 110.227 26.3069V28.4926H117.575V16.354C117.575 13.3876 116.91 11.2019 115.308 9.64065C113.627 7.96232 111.048 7.0646 107.257 7.0646C103.622 7.0646 101.082 7.72813 98.6979 8.7039L100.222 13.9341C102.098 13.1925 103.818 12.7631 106.045 12.7631C108.898 12.7631 110.266 14.0121 110.266 16.1978V16.5491C109.055 16.1198 107.14 15.7295 105.186 15.7295C100.222 15.7295 96.9001 17.9933 96.9001 22.3647V22.4428C96.9001 26.6581 99.9876 28.961 104.013 28.961ZM106.671 24.3163C105.146 24.3163 104.052 23.4576 104.052 22.0135V21.9354C104.052 20.3742 105.303 19.3203 107.452 19.3203C108.547 19.3203 109.602 19.5545 110.344 19.8668V20.8425C110.344 22.9502 108.82 24.3163 106.671 24.3163Z" fill="black"/>
<path d="M129.563 28.9219C131.635 28.9219 133.393 28.4536 134.722 27.712V21.8964C133.823 22.3257 132.885 22.5989 131.908 22.5989C130.54 22.5989 129.876 21.9744 129.876 20.4913V13.3486H134.8V7.37685H129.876V2.02961H122.45V7.37685H119.949V13.3486H122.45V21.9354C122.45 26.9704 125.108 28.9219 129.563 28.9219Z" fill="black"/>
<path d="M137.992 5.46433H145.73V1.74164e-06H137.992V5.46433ZM138.148 28.4926H145.574V7.37685H138.148V28.4926Z" fill="black"/>
<path d="M159.91 29C164.56 29 167.374 27.0485 169.328 24.1602L164.365 20.5693C163.192 21.9354 162.059 22.755 160.3 22.755C157.799 22.755 156.079 20.6864 156.079 17.9542V17.8762C156.079 15.3001 157.838 13.1925 160.222 13.1925C162.02 13.1925 163.153 14.0121 164.17 15.4172L169.211 11.6703C167.413 8.821 164.521 6.94751 160.183 6.94751C153.5 6.94751 148.849 11.9825 148.849 17.9542V18.0323C148.849 24.004 153.539 29 159.91 29Z" fill="black"/>
<path d="M180.363 28.961C185.522 28.961 189 26.541 189 21.8964V21.8183C189 17.7201 185.678 16.2759 181.496 15.105C179.268 14.4415 178.057 14.0511 178.057 13.2315V13.1534C178.057 12.568 178.643 12.1386 179.777 12.1386C181.457 12.1386 183.841 12.8802 186.03 14.0902L188.57 9.40646C186.147 7.84522 182.942 6.94751 179.855 6.94751C174.969 6.94751 171.374 9.44549 171.374 13.9341V14.0121C171.374 18.2665 174.696 19.6716 178.878 20.7645C181.105 21.389 182.278 21.7402 182.278 22.5599V22.638C182.278 23.3795 181.692 23.7699 180.402 23.7699C178.213 23.7699 175.556 22.9502 173.133 21.3499L170.358 25.8385C173.289 27.9462 176.806 28.961 180.363 28.961Z" fill="black"/>
</svg>
